<?xml version="1.0" standalone="no"?>
<!DOCTYPE svg PUBLIC "-//W3C//DTD SVG 20010904//EN"
 "http://www.w3.org/TR/2001/REC-SVG-20010904/DTD/svg10.dtd">
<svg version="1.0" xmlns="http://www.w3.org/2000/svg"
 width="512.000000pt" height="512.000000pt" viewBox="0 0 512.000000 512.000000"
 preserveAspectRatio="xMidYMid meet">
<metadata>
Created by potrace 1.14, written by Peter Selinger 2001-2017
</metadata>
<g transform="translate(0.000000,512.000000) scale(0.100000,-0.100000)"
fill="#000000" stroke="none">
<path d="M4085 5113 c-48 -9 -144 -48 -185 -77 -165 -113 -244 -317 -195 -506
45 -174 170 -299 350 -350 l60 -17 -73 -6 c-189 -18 -431 -141 -564 -286 -73
-80 -87 -99 -139 -189 -51 -90 -102 -231 -114 -317 -4 -28 -9 -126 -11 -220
-1 -93 -3 -176 -3 -182 -1 -7 -29 9 -63 37 -136 109 -336 189 -503 199 -23 2
-15 6 35 19 220 58 366 258 354 488 -12 262 -237 464 -498 448 -123 -8 -227
-55 -315 -144 -209 -209 -170 -569 77 -728 59 -37 151 -72 190 -72 42 0 20 -7
-43 -15 -32 -3 -62 -8 -65 -10 -3 -2 -22 -6 -44 -9 -21 -3 -68 -18 -105 -33
-282 -111 -481 -317 -574 -593 -37 -110 -49 -201 -50 -390 0 -94 -2 -170 -4
-170 -2 0 -32 23 -66 50 -112 91 -339 185 -465 193 -40 2 -49 17 -10 17 12 0
54 16 95 36 207 99 315 329 258 549 -23 86 -62 152 -130 220 -93 92 -197 135
-330 135 -357 0 -585 -372 -425 -691 65 -127 220 -242 341 -251 38 -3 28 -11
-19 -15 -83 -6 -206 -41 -302 -85 -253 -117 -447 -350 -521 -628 -19 -72 -23
-114 -25 -280 -3 -181 -1 -200 20 -261 42 -121 120 -213 233 -271 l63 -33 1
-50 c0 -27 0 -151 0 -275 0 -208 2 -228 21 -269 16 -32 31 -48 62 -62 38 -17
75 -19 555 -19 509 0 514 0 552 22 71 40 77 64 77 341 1 133 1 258 1 277 1 33
5 37 65 68 150 78 256 253 256 424 0 24 4 37 10 33 6 -4 10 -191 10 -529 0
-577 -2 -562 63 -608 l32 -23 531 -3 530 -3 34 23 c19 13 43 38 53 57 19 32
20 56 21 556 l0 523 60 28 c146 69 249 227 259 396 3 53 15 91 18 57 1 -8 2
-354 3 -769 1 -735 2 -756 21 -789 11 -19 33 -43 48 -55 28 -21 37 -21 555
-24 594 -3 574 -5 619 74 l23 39 0 761 0 762 57 28 c112 57 197 155 239 273
l24 66 -3 685 c-2 672 -3 686 -24 763 -73 255 -239 469 -464 596 -97 54 -261
106 -361 114 -27 2 -9 12 45 27 133 36 264 169 307 310 37 123 28 244 -27 357
-35 72 -132 172 -200 207 -95 48 -210 66 -308 49z"/>
</g>
</svg>
