<?xml version="1.0" standalone="no"?>
<!DOCTYPE svg PUBLIC "-//W3C//DTD SVG 20010904//EN"
 "http://www.w3.org/TR/2001/REC-SVG-20010904/DTD/svg10.dtd">
<svg version="1.0" xmlns="http://www.w3.org/2000/svg"
 width="1000.000000pt" height="1000.000000pt" viewBox="0 0 1000.000000 1000.000000"
 preserveAspectRatio="xMidYMid meet">
<metadata>
Created by potrace 1.14, written by Peter Selinger 2001-2017
</metadata>
<g transform="translate(0.000000,1000.000000) scale(0.100000,-0.100000)"
fill="#000000" stroke="none">
<path d="M3590 9743 c-51 -8 -155 -45 -219 -77 -209 -106 -393 -330 -506 -615
-135 -342 -212 -771 -256 -1426 -22 -327 -10 -1569 16 -1692 4 -18 -7 -28 -79
-66 -402 -214 -707 -619 -832 -1104 -122 -477 -69 -1002 143 -1428 112 -224
205 -351 423 -580 84 -88 189 -209 235 -270 273 -365 419 -748 455 -1196 11
-135 5 -266 -25 -564 -8 -82 -15 -160 -15 -172 l0 -23 2429 0 2429 0 5 282 c8
432 7 428 422 1938 292 1064 387 1573 372 2010 -5 165 -13 227 -44 351 l-16
66 36 112 c94 289 120 594 72 866 -68 383 -289 709 -587 865 -235 123 -509
143 -779 58 l-66 -21 -70 41 c-334 195 -712 221 -1073 72 l-72 -30 -47 38
c-243 200 -504 292 -781 278 -63 -3 -127 -9 -142 -12 -30 -7 -25 -40 -53 366
-61 887 -203 1356 -502 1655 -145 146 -296 225 -511 270 -68 14 -295 19 -362
8z m259 -313 c93 -12 214 -53 281 -95 25 -16 71 -53 104 -84 290 -276 409
-825 452 -2083 4 -109 9 -198 11 -198 2 0 43 24 92 53 245 148 520 162 766 40
102 -51 192 -122 294 -229 l89 -94 66 45 c156 109 339 168 521 167 218 -1 395
-64 572 -203 35 -27 66 -49 69 -49 4 0 35 13 70 30 96 45 171 67 268 80 407
55 741 -236 827 -720 19 -108 17 -364 -5 -475 -24 -128 -52 -222 -97 -336
l-40 -99 25 -63 c77 -195 86 -509 25 -917 -58 -385 -134 -690 -480 -1940 -199
-716 -279 -1099 -279 -1342 l0 -78 -2105 0 -2106 0 8 62 c14 116 8 444 -11
568 -44 290 -116 524 -240 775 -140 283 -288 487 -560 773 -89 95 -170 192
-211 253 -232 348 -334 783 -280 1193 76 580 402 1023 885 1207 l95 36 -2 34
c-55 826 -58 1573 -8 2134 46 510 130 888 255 1150 124 259 314 410 520 414
25 1 83 -4 129 -9z"/>
<path d="M3681 9209 c-168 -33 -306 -253 -400 -635 -143 -581 -186 -1590 -115
-2701 4 -55 10 -106 14 -112 5 -8 41 -6 131 9 449 72 928 91 1142 44 l27 -6 0
433 c0 558 -28 1292 -66 1719 -37 426 -108 760 -196 935 -57 111 -145 211
-228 258 -85 48 -224 73 -309 56z"/>
<path d="M5071 6905 c-112 -32 -222 -97 -323 -193 l-38 -36 0 -476 1 -475 40
-25 c66 -40 155 -142 193 -222 60 -125 79 -216 73 -341 l-5 -108 40 -20 c164
-83 450 -75 605 17 209 126 258 275 258 784 0 269 -13 379 -65 586 -34 135
-75 202 -200 324 -82 80 -152 126 -252 168 -79 33 -240 41 -327 17z"/>
<path d="M6370 6710 c-41 -11 -103 -34 -137 -50 -68 -33 -183 -115 -183 -129
0 -5 11 -56 24 -113 42 -178 57 -305 63 -525 9 -329 -20 -600 -77 -737 -34
-80 -40 -71 76 -126 152 -74 311 -97 457 -66 200 41 316 149 406 379 83 213
116 399 115 652 -1 260 -38 461 -96 522 -39 41 -137 113 -193 141 -136 68
-317 89 -455 52z"/>
<path d="M7432 6564 c-41 -13 -91 -33 -111 -44 l-37 -19 17 -88 c33 -161 42
-278 36 -492 -5 -207 -15 -287 -57 -451 -24 -96 -81 -251 -116 -322 -13 -26
-24 -52 -24 -57 0 -5 23 -34 51 -65 132 -145 328 -164 523 -50 131 77 206 167
283 339 88 195 123 353 123 549 0 220 -48 390 -150 528 -129 176 -335 242
-538 172z"/>
<path d="M3885 5614 c-302 -24 -746 -91 -885 -134 -334 -103 -597 -364 -725
-720 -56 -155 -76 -271 -82 -465 -6 -208 12 -346 68 -521 75 -234 177 -397
385 -616 80 -84 184 -200 231 -258 391 -484 612 -1062 630 -1648 l6 -182 1872
0 c1699 0 1873 1 1879 16 3 9 6 28 6 44 0 50 47 309 90 494 45 192 107 428
200 761 349 1248 450 1681 490 2110 16 171 8 410 -14 432 -3 3 -27 -14 -53
-38 -146 -137 -331 -213 -513 -212 -169 0 -287 47 -411 161 l-70 65 -42 -32
c-131 -99 -274 -144 -457 -144 -203 0 -385 49 -534 143 l-65 41 -59 -41 c-33
-22 -90 -54 -126 -70 -222 -101 -543 -101 -749 -1 l-57 28 -73 -71 c-185 -182
-504 -334 -908 -432 -105 -25 -310 -64 -340 -64 -13 0 -19 16 -28 83 -7 45
-14 94 -17 108 -5 26 -4 27 68 39 478 77 919 260 1093 452 90 99 117 189 90
303 -46 202 -153 304 -365 350 -74 16 -414 28 -535 19z m989 -1291 c-3 -21
-16 -116 -28 -210 l-22 -173 111 0 112 0 6 43 c3 23 15 117 28 210 l22 167
158 0 c88 0 159 -3 159 -7 0 -5 -11 -93 -25 -197 -14 -104 -25 -195 -25 -203
0 -10 24 -13 110 -13 l110 0 0 -140 0 -140 -129 0 -128 0 -6 -37 c-4 -21 -9
-71 -13 -110 l-7 -73 112 0 111 0 0 -140 0 -140 -129 0 -129 0 -6 -27 c-3 -16
-15 -102 -26 -193 -11 -91 -23 -180 -26 -197 l-6 -33 -160 0 -160 0 6 38 c3
20 15 109 26 197 11 88 22 172 25 188 l5 27 -113 0 -113 0 -18 -142 c-9 -79
-22 -180 -28 -225 l-11 -83 -158 0 c-88 0 -159 3 -159 8 0 11 49 372 55 410
l6 32 -116 0 -115 0 0 140 0 140 129 0 c147 0 135 -8 146 95 3 33 9 75 12 93
l5 32 -116 0 -116 0 0 140 0 140 135 0 c107 0 135 3 135 13 0 8 11 99 25 203
14 104 25 192 25 197 0 4 72 7 160 7 l160 0 -6 -37z m1776 -788 l0 -825 -215
0 -215 0 0 645 0 645 -120 0 -120 0 0 180 0 180 335 0 335 0 0 -825z m-2165
-1135 c240 -34 425 -247 425 -489 0 -178 -69 -312 -215 -416 -114 -81 -145
-88 -422 -93 l-243 -4 0 506 0 506 193 0 c105 0 224 -5 262 -10z m1318 -482
c103 -271 187 -496 187 -500 0 -5 -60 -8 -133 -8 l-133 0 -29 85 -30 85 -192
0 -192 0 -27 -85 -28 -85 -137 0 -136 0 190 500 191 500 141 0 140 0 188 -492z
m772 482 c207 -30 385 -210 417 -421 35 -233 -102 -460 -330 -551 -52 -20 -78
-22 -299 -26 l-243 -4 0 506 0 506 193 0 c105 0 223 -5 262 -10z"/>
<path d="M4790 3653 c0 -5 -4 -35 -9 -68 -5 -33 -12 -79 -15 -103 l-6 -43 112
3 113 3 11 85 c20 144 31 130 -96 130 -60 0 -110 -3 -110 -7z"/>
<path d="M4290 1905 l0 -288 83 5 c173 10 271 110 271 278 0 171 -100 275
-276 287 l-78 6 0 -288z"/>
<path d="M5466 2100 c-3 -8 -31 -86 -61 -172 l-55 -158 120 0 c66 0 120 4 120
9 0 12 -100 301 -110 321 -8 13 -9 13 -14 0z"/>
<path d="M6377 2183 c-4 -3 -7 -132 -7 -286 l0 -280 83 5 c121 6 201 52 250
143 18 33 22 57 22 135 0 84 -3 101 -28 148 -32 61 -88 106 -160 127 -52 15
-148 20 -160 8z"/>
</g>
</svg>
